<?xml version="1.0" encoding="UTF-8" standalone="no"?>
<!DOCTYPE svg PUBLIC "-//W3C//DTD SVG 1.1//EN" "http://www.w3.org/Graphics/SVG/1.1/DTD/svg11.dtd">
<svg xmlns="http://www.w3.org/2000/svg">
<metadata>
This is a custom SVG webfont generated by Font Squirrel.
Copyright   :  2000 T26 a digital type foundry 1110 N Milwaukee Ave Chicago IL 60622 USA  T0690 ID5116748  Designer Bill Dawson All rights reserved
</metadata>
<defs>
<font id="LegerLightRegular" horiz-adv-x="776">
<font-face units-per-em="2048" ascent="1638" descent="-410"/>
<missing-glyph horiz-adv-x="311"/>
<glyph unicode=" " horiz-adv-x="311"/>
<glyph unicode="&#9;" horiz-adv-x="311"/>
<glyph unicode=" " horiz-adv-x="311"/>
<glyph unicode="!" horiz-adv-x="550" d="M215 33q0 25 16.5 41t39 16t40 -17.5t17.5 -40t-16.5 -39t-41.5 -16.5q-23 0 -39 16.5t-16 39.5zM233 270v1160h74v-1160h-74z"/>
<glyph unicode="&quot;" horiz-adv-x="661" d="M188 1083v347h74v-347h-74zM408 1083v347h73v-347h-73z"/>
<glyph unicode="#" horiz-adv-x="1103" d="M57 516v74h258l68 225h-223v74h246l110 362l68 -20l-103 -342h224l110 362l68 -20l-103 -342h238v-74h-260l-68 -225h225v-74h-247l-109 -362l-70 20l105 342h-223l-111 -362l-70 20l105 342h-238zM391 590h223l68 225h-223z"/>
<glyph unicode="$" horiz-adv-x="784" d="M74 987q0 119 75.5 208t198.5 112v163h72v-163q94 -16 160.5 -73.5t95.5 -139.5l-72 -19q-25 72 -86 117t-135 45q-98 0 -167 -73.5t-69 -176.5q0 -98 55.5 -143t180.5 -88q74 -27 114 -44.5t93 -56.5t77.5 -98t24.5 -143q0 -119 -74.5 -208t-197.5 -114v-145h-72v145 q-168 31 -239 174l67 27q31 -59 87 -95t120 -36q98 0 168 74.5t70 177.5q0 63 -17.5 108t-59.5 76t-79 47.5t-107 40.5q-66 23 -103.5 40t-86.5 52t-71.5 86t-22.5 123z"/>
<glyph unicode="%" horiz-adv-x="1128" d="M76 881v94q0 82 58.5 140.5t140 58.5t139 -58.5t57.5 -140.5v-94q0 -82 -57.5 -139.5t-139 -57.5t-140 57.5t-58.5 139.5zM150 881q0 -53 35.5 -89t89 -36t89 35.5t35.5 89.5v94q0 51 -36.5 89t-88 38t-88 -38t-36.5 -89v-94zM164 -4l727 1188l61 -37l-727 -1190z M643 178v94q0 82 58.5 140.5t140.5 58.5t139 -58.5t57 -140.5v-94q0 -82 -57 -139t-139 -57t-140.5 57t-58.5 139zM715 178q0 -51 38 -88t89 -37t88 37t37 88v94q0 51 -37 88t-88 37t-89 -36.5t-38 -88.5v-94z"/>
<glyph unicode="&amp;" horiz-adv-x="995" d="M80 287v256q0 164 158 272l-93 129q-66 92 -65 191q0 127 91 218t218 91q121 0 210 -82t99 -203h-75q-10 90 -76 151.5t-158 61.5q-98 0 -167.5 -69.5t-69.5 -167.5q0 -76 49 -146l512 -713l176 177l51 -52l-184 -184l73 -100q33 -45 64 -62q18 -10 51 -10q37 0 66 16 l47 -57q-53 -33 -113 -33q-98 0 -172 101l-65 94l-99 -100q-92 -88 -219 -88.5t-218 91t-91 218.5zM152 287q0 -98 69.5 -168t167.5 -70t166 70l109 106l-383 529q-129 -78 -129 -211v-256z"/>
<glyph unicode="'" horiz-adv-x="546" d="M231 1083v347h74v-347h-74z"/>
<glyph unicode="(" horiz-adv-x="739" d="M92 309v809q0 229 158 393t385 175v-72q-197 -10 -334 -153.5t-137 -342.5v-809q0 -199 137 -342t334 -153v-72q-227 10 -385 174t-158 393z"/>
<glyph unicode=")" horiz-adv-x="778" d="M111 -186q197 10 333 153.5t136 341.5v809q0 199 -136.5 342.5t-332.5 153.5v72q227 -10 384.5 -175t157.5 -393v-809q0 -227 -157.5 -392t-384.5 -175v72z"/>
<glyph unicode="*" horiz-adv-x="788" d="M96 1221v73h228l-115 197l63 37l113 -199l113 199l65 -37l-114 -197h227v-73h-227l114 -195l-65 -37l-113 197l-113 -197l-63 35l115 197h-228z"/>
<glyph unicode="+" horiz-adv-x="804" d="M55 584v71h303v303h72v-303h303v-71h-303v-303h-72v303h-303z"/>
<glyph unicode="," horiz-adv-x="614" d="M199 -51q131 104 143 276h72q-12 -209 -174 -336z"/>
<glyph unicode="-" horiz-adv-x="679" d="M160 444v72h346v-72h-346z"/>
<glyph unicode="." horiz-adv-x="536" d="M207 55q0 25 16.5 41.5t39 16.5t39.5 -17.5t17 -40t-16 -39t-41 -16.5q-23 0 -39 16t-16 39z"/>
<glyph unicode="/" horiz-adv-x="798" d="M66 -106l583 1626l70 -25l-584 -1626z"/>
<glyph unicode="0" horiz-adv-x="876" d="M131 287v848q0 127 91 218t218 91t218.5 -91t91.5 -218v-848q0 -127 -91.5 -218.5t-218.5 -91.5t-218 91.5t-91 218.5zM205 287q0 -98 68.5 -168t167 -70t168 69.5t69.5 168.5v848q0 100 -69.5 168.5t-168 68.5t-167 -68.5t-68.5 -168.5v-848z"/>
<glyph unicode="1" horiz-adv-x="514" d="M119 1358v72h209v-1430h-72v1358h-137z"/>
<glyph unicode="2" horiz-adv-x="876" d="M133 1159q10 121 99.5 203t209.5 82q127 0 218.5 -91t91.5 -218v-93q0 -70 -19.5 -129t-63.5 -116.5t-78 -91l-99 -93.5q-143 -127 -197 -206q-90 -127 -90 -295v-39h540v-72h-612v111q0 184 100 329q53 82 211 226l88 82q147 147 148 294v93q0 100 -69.5 168.5 t-168.5 68.5q-92 0 -158.5 -61.5t-76.5 -151.5h-74z"/>
<glyph unicode="3" horiz-adv-x="876" d="M135 262h74q10 -90 76.5 -151.5t158.5 -61.5q98 0 167 69.5t69 168.5v168q0 100 -68.5 168.5t-167.5 68.5h-77v72h77q98 0 167 69.5t69 167.5v134q0 100 -68.5 168.5t-167.5 68.5q-74 0 -133 -40t-86 -105l-69 22q35 86 113.5 140.5t174.5 54.5q127 0 218.5 -91 t91.5 -218v-134q0 -160 -162 -272q162 -117 162 -274v-168q0 -127 -91.5 -218.5t-218.5 -91.5q-121 0 -210 82t-99 203z"/>
<glyph unicode="4" horiz-adv-x="882" d="M59 311l543 1119h107q-20 -25 -21 -1047h133v-72h-133v-311h-72v311h-557zM176 383h440v915z"/>
<glyph unicode="5" horiz-adv-x="876" d="M133 698v732h567v-72h-493v-594q125 106 237 106q125 0 217.5 -91t92.5 -218v-274q0 -127 -91.5 -218.5t-218.5 -91.5q-121 0 -210 82t-99 203h74q10 -90 76.5 -151.5t158.5 -61.5q98 0 167 69.5t69 168.5v274q0 98 -68.5 167t-167.5 69q-70 0 -127 -36t-88 -97z"/>
<glyph unicode="6" horiz-adv-x="876" d="M127 287v848q0 127 91 218t218 91q152 0 242 -115l-60 -43q-74 86 -182 86q-98 0 -167.5 -68.5t-69.5 -168.5v-336q125 106 237 106q127 0 218 -91t91 -218v-309q0 -127 -91 -218.5t-218 -91.5t-218 91.5t-91 218.5zM199 287q0 -98 69.5 -168t168 -70t168 69.5 t69.5 168.5v309q0 98 -69.5 166.5t-168 68.5t-168 -68.5t-69.5 -166.5v-309z"/>
<glyph unicode="7" horiz-adv-x="808" d="M53 1358v72h676l-444 -1432h-76l422 1360h-578z"/>
<glyph unicode="8" horiz-adv-x="876" d="M121 287v145q0 158 160 273q-160 111 -160 272v158q0 127 91 218t218 91t218 -91t91 -218v-158q0 -160 -161 -272q162 -117 161 -273v-145q0 -127 -91 -218.5t-218 -91.5t-218 91.5t-91 218.5zM193 287q0 -98 68.5 -168t168.5 -70q98 0 167 69.5t69 168.5v145 q0 98 -69 167t-167 69q-100 0 -168.5 -69t-68.5 -167v-145zM193 977q0 -98 68.5 -167t168.5 -69q98 0 167 69t69 167v158q0 100 -69 168.5t-167 68.5q-100 0 -168.5 -68.5t-68.5 -168.5v-158z"/>
<glyph unicode="9" horiz-adv-x="876" d="M121 723v412q0 127 91 218t218 91t218 -91t91 -218v-848q0 -127 -91 -218.5t-218 -91.5q-152 0 -242 117l60 41q74 -86 182 -86q98 0 168 69.5t70 168.5v229q-127 -102 -238 -102q-127 0 -218 91t-91 218zM195 723q0 -98 68.5 -168t166.5 -70t168 70t70 168v12v400 q0 100 -70 168.5t-168 68.5t-166.5 -68.5t-68.5 -168.5v-412z"/>
<glyph unicode=":" horiz-adv-x="548" d="M213 221q0 20 16.5 37.5t38.5 17.5q25 0 41.5 -16t16.5 -38.5t-17.5 -40t-40 -17.5t-39 16t-16.5 41zM213 524q0 25 16.5 41.5t39 16.5t40 -17.5t17.5 -40t-16.5 -39t-41.5 -16.5q-23 0 -39 17.5t-16 37.5z"/>
<glyph unicode=";" horiz-adv-x="608" d="M143 -51q131 109 144 278h71q-12 -209 -174 -338zM266 524.5q0 22.5 17.5 40t40 17.5t39 -16.5t16.5 -41.5q0 -20 -17.5 -37.5t-37.5 -17.5q-25 0 -41.5 16.5t-16.5 39z"/>
<glyph unicode="&lt;" horiz-adv-x="880" d="M72 635l753 348v-78l-579 -270l579 -270v-80z"/>
<glyph unicode="=" horiz-adv-x="823" d="M63 422v72h678v-72h-678zM63 657v72h678v-72h-678z"/>
<glyph unicode="&gt;" horiz-adv-x="856" d="M27 285v80l579 270l-579 270v78l753 -348z"/>
<glyph unicode="?" horiz-adv-x="780" d="M74 1098v37q0 127 91 218t218 91t218 -91t91 -218v-152q0 -125 -49 -195q-27 -39 -98 -88q-68 -47 -88 -81q-37 -61 -37 -183v-125h-74v125q0 78 13.5 134.5t41 94t49 56t56.5 41.5q61 41 82 74q33 47 33 147v152q0 100 -70 168.5t-168 68.5t-168 -68.5t-70 -168.5v-37 h-71zM328 55.5q0 22.5 17 40t40 17.5t39 -16.5t16 -41.5q0 -23 -16 -39t-39 -16q-25 0 -41 16.5t-16 39z"/>
<glyph unicode="@" horiz-adv-x="1167" d="M74 475v74q0 205 146.5 351.5t351 146.5t352 -146.5t147.5 -351.5v-162q0 -66 -48 -114t-114 -48q-78 0 -143 88q-96 -88 -195 -88q-102 0 -175.5 74t-73.5 176v74q0 102 73.5 176t176 74t176 -74t73.5 -176v-162q0 -37 25.5 -62.5t62.5 -25.5t62.5 25.5t25.5 62.5v162 q0 176 -124.5 301t-301 125t-301.5 -125t-125 -301v-74q0 -176 125 -301t301 -125q94 0 181 41l34 -65q-104 -47 -215 -48q-205 0 -351 146.5t-146 351.5zM395 475q0 -74 51.5 -125t125 -51t126 51t52.5 125v74q0 74 -52.5 125t-126 51t-125 -51t-51.5 -125v-74z"/>
<glyph unicode="A" horiz-adv-x="819" d="M92 0v1135q0 127 91 218t218 91t218.5 -91t91.5 -218v-1135h-74v479h-473v-479h-72zM164 551h473v584q0 100 -68.5 168.5t-167 68.5t-168 -68.5t-69.5 -168.5v-584z"/>
<glyph unicode="B" horiz-adv-x="821" d="M94 0v1171q0 113 80 193t193 80h36q127 0 218.5 -91t91.5 -218v-113q0 -156 -162 -272q162 -117 162 -273v-168q0 -127 -92.5 -218t-219.5 -91h-307zM166 72h237q98 0 167 69.5t69 167.5v168q0 98 -68.5 167t-167.5 69h-237v-641zM166 786h237q98 0 167 69t69 167v113 q0 100 -68.5 168.5t-167.5 68.5h-36q-84 0 -142.5 -59.5t-58.5 -141.5v-385z"/>
<glyph unicode="C" d="M104 287v848q0 127 91.5 218t218.5 91q88 0 161.5 -45t112.5 -121l-65 -27q-68 121 -209 121q-98 0 -167 -68.5t-69 -168.5v-848q0 -98 68.5 -168t167.5 -70q66 0 122 33t87 90l65 -29q-39 -76 -112.5 -121t-161.5 -45q-127 0 -218.5 91.5t-91.5 218.5z"/>
<glyph unicode="D" horiz-adv-x="823" d="M94 0v1430h309q127 0 218.5 -91.5t91.5 -218.5v-811q0 -127 -91.5 -218t-218.5 -91h-309zM166 72h237q98 0 168 69.5t70 167.5v811q0 98 -69.5 168t-168.5 70h-237v-1286z"/>
<glyph unicode="E" horiz-adv-x="733" d="M88 274v1156h557v-72h-485v-596h358v-74h-358v-414q0 -84 58 -143t142 -59h285v-72h-285q-113 0 -192.5 80.5t-79.5 193.5z"/>
<glyph unicode="F" horiz-adv-x="704" d="M88 0v1120q0 135 78 222.5t194 87.5h285v-72h-285q-90 0 -145 -67.5t-55 -170.5v-368h358v-72h-358v-680h-72z"/>
<glyph unicode="G" horiz-adv-x="802" d="M92 289v850q0 127 91 218t218 91q86 0 160 -44t115 -122l-68 -29q-66 121 -207 121q-98 0 -167.5 -68.5t-69.5 -166.5v-850q0 -98 69.5 -168t168 -70t168 69.5t69.5 168.5v233h-272v74h344v-307q0 -127 -91.5 -218t-218.5 -91t-218 91t-91 218z"/>
<glyph unicode="H" horiz-adv-x="858" d="M119 0v1430h74v-699h473v699h71v-1430h-71v659h-473v-659h-74z"/>
<glyph unicode="I" horiz-adv-x="528" d="M229 0v1430h72v-1430h-72z"/>
<glyph unicode="J" horiz-adv-x="731" d="M-23 141l68 29q68 -121 207 -121q98 0 166.5 69.5t68.5 168.5v1071h-270v72h344v-1143q0 -127 -91 -218.5t-218 -91.5q-86 0 -161 44t-114 120z"/>
<glyph unicode="K" horiz-adv-x="925" d="M109 0v1430h71v-664v-100v-666h-71zM180 666l60 75l516 689h92l-535 -711l557 -719h-92l-538 698l-60 68v-100z"/>
<glyph unicode="L" horiz-adv-x="675" d="M104 0v1430h72v-1358h426v-72h-498z"/>
<glyph unicode="M" horiz-adv-x="1026" d="M106 0v1430h87l317 -922l319 922h86v-1430h-71v1249l-324 -925h-20l-322 925v-1249h-72z"/>
<glyph unicode="N" horiz-adv-x="831" d="M98 0v1430h86l461 -1260v1260h72v-1430h-86l-459 1255v-1255h-74z"/>
<glyph unicode="O" horiz-adv-x="815" d="M90 287v848q0 127 91 218t218 91t218.5 -91t91.5 -218v-848q0 -127 -91.5 -218.5t-218.5 -91.5t-218 91.5t-91 218.5zM164 287q0 -98 68.5 -168t167 -70t168 69.5t69.5 168.5v848q0 100 -69.5 168.5t-168 68.5t-167 -68.5t-68.5 -168.5v-848z"/>
<glyph unicode="P" horiz-adv-x="821" d="M94 0v1430h309q127 0 218.5 -91.5t91.5 -218.5v-442q0 -127 -91.5 -218t-218.5 -91q-109 0 -235 102v-471h-74zM168 676q0 -98 68.5 -167t167 -69t168 69t69.5 169v442q0 100 -69.5 169t-168.5 69h-235v-682z"/>
<glyph unicode="Q" horiz-adv-x="888" d="M92 287v848q0 127 91 218t218 91t218.5 -91t91.5 -218v-848q0 -96 -68 -199q53 -39 109 -39q25 0 49 6l28 -65q-37 -12 -77 -13q-86 0 -162 62q-94 -61 -189 -62q-127 0 -218 91.5t-91 218.5zM166 287q0 -98 68.5 -168t166.5 -70q55 0 140 43l-197 273l57 43l191 -265 q47 80 47 144v848q0 100 -68.5 168.5t-169.5 68.5q-98 0 -166.5 -68.5t-68.5 -168.5v-848z"/>
<glyph unicode="R" horiz-adv-x="774" d="M70 0v1430h309q127 0 218 -91.5t91 -218.5v-368q0 -104 -65.5 -186.5t-178.5 -119.5l281 -446h-84l-281 442h-217v-442h-73zM143 514h236q100 0 168.5 69.5t68.5 168.5v368q0 98 -68.5 168t-168.5 70h-236v-844z"/>
<glyph unicode="S" horiz-adv-x="778" d="M72 971v164q0 127 91 218t218 91q96 0 176 -54.5t115 -144.5l-72 -18q-27 66 -87 105.5t-132 39.5q-98 0 -167 -68.5t-69 -168.5v-164q0 -92 54.5 -134t181.5 -83q150 -51 211 -101q98 -78 98 -229v-137q0 -127 -91 -218.5t-218 -91.5q-96 0 -175 53.5t-114 141.5l72 23 q29 -66 87 -106t130 -40q100 0 168.5 69.5t68.5 168.5v137q0 113 -62 164t-198 96q-70 23 -106.5 39t-85.5 49t-71.5 82t-22.5 117z"/>
<glyph unicode="T" horiz-adv-x="759" d="M66 1358v72h639v-72h-283v-1358h-72v1358h-284z"/>
<glyph unicode="U" horiz-adv-x="827" d="M96 287v1143h72v-1143q0 -98 69.5 -168t168 -70t167 69.5t68.5 168.5v1143h74v-1143q0 -127 -91.5 -218.5t-218 -91.5t-218 91.5t-91.5 218.5z"/>
<glyph unicode="V" horiz-adv-x="831" d="M57 1430h74l277 -1272l278 1272h74l-314 -1430h-77z"/>
<glyph unicode="W" horiz-adv-x="1273" d="M45 1430h72l250 -1258l247 1258h29l248 -1258l250 1258h71l-282 -1430h-78l-223 1124l-223 -1124h-78z"/>
<glyph unicode="X" horiz-adv-x="849" d="M45 0l332 715l-326 715h78l287 -629l289 629h77l-325 -715l331 -715h-79l-293 631l-293 -631h-78z"/>
<glyph unicode="Y" horiz-adv-x="856" d="M37 1430h78l305 -850l305 850h78l-346 -963v-467h-74v467z"/>
<glyph unicode="Z" horiz-adv-x="786" d="M70 1358v72h624l-512 -1358h523v-72h-629l512 1358h-518z"/>
<glyph unicode="[" horiz-adv-x="710" d="M109 49v1329q0 125 71.5 216.5t202.5 91.5h205v-72h-205q-106 0 -154.5 -77t-48.5 -159v-1329q0 -82 48 -158.5t155 -76.5h205v-72h-205q-131 0 -202.5 91t-71.5 216z"/>
<glyph unicode="\" horiz-adv-x="813" d="M57 1546l70 25l612 -1710l-69 -25z"/>
<glyph unicode="]" horiz-adv-x="757" d="M133 -186h205q106 0 153.5 76.5t47.5 158.5v1329q0 82 -47.5 159t-153.5 77h-205v72h205q131 0 202.5 -91.5t71.5 -216.5v-1329q0 -125 -71.5 -216t-202.5 -91h-205v72z"/>
<glyph unicode="^" horiz-adv-x="917" d="M20 682l371 737h117l371 -737h-84l-344 692l-347 -692h-84z"/>
<glyph unicode="_" horiz-adv-x="948" d="M-25 -221h979v-31h-979v31z"/>
<glyph unicode="`" horiz-adv-x="649" d="M172 1393l45 55l248 -203l-45 -55z"/>
<glyph unicode="a" horiz-adv-x="761" d="M94 252v201q0 113 81 193.5t194 80.5q90 0 200 -84v133q0 84 -58 143.5t-142 59.5q-70 0 -125 -43l-51 51q80 63 176 64q113 0 193.5 -81t80.5 -194v-524q0 -113 -81 -194t-193.5 -81t-193.5 81t-81 194zM168 252q0 -84 58.5 -143.5t142.5 -59.5t142 59.5t58 143.5v201 q0 84 -58 142t-142 58t-142.5 -58t-58.5 -142v-201z"/>
<glyph unicode="b" horiz-adv-x="761" d="M100 252v1210h72v-495q111 84 201 84q115 0 194.5 -81t79.5 -194v-524q0 -113 -80 -194t-194 -81q-113 0 -193 81t-80 194zM172 252q0 -84 58.5 -143.5t142.5 -59.5t143 59.5t59 143.5v524q0 84 -59 143.5t-143 59.5t-142.5 -59.5t-58.5 -143.5v-524z"/>
<glyph unicode="c" horiz-adv-x="684" d="M113 252v524q0 113 79.5 194t192.5 81q139 0 221 -113l-63 -37q-59 78 -158 78q-84 0 -142.5 -59.5t-58.5 -143.5v-524q0 -84 58.5 -143.5t142.5 -59.5q98 0 158 78l63 -37q-82 -113 -221 -113q-113 0 -192.5 81t-79.5 194z"/>
<glyph unicode="d" horiz-adv-x="774" d="M106 252v524q0 113 80 194t193 81q90 0 201 -84v495h73v-1210q0 -113 -80.5 -194t-193.5 -81t-193 81t-80 194zM178 252q0 -84 58.5 -143.5t142.5 -59.5t142.5 59.5t58.5 143.5v524q0 84 -58.5 143.5t-142.5 59.5t-142.5 -59.5t-58.5 -143.5v-524z"/>
<glyph unicode="e" horiz-adv-x="749" d="M104 252v524q0 113 81 194t194 81t192.5 -81t79.5 -194v-346h-475v-178q0 -84 59.5 -143.5t143.5 -59.5q66 0 125 43l51 -51q-80 -63 -176 -64q-113 0 -194 81t-81 194zM176 504h404v272q0 84 -58.5 143.5t-142.5 59.5t-143.5 -59.5t-59.5 -143.5v-272z"/>
<glyph unicode="f" horiz-adv-x="516" d="M102 0v1188q0 113 80 193.5t193 80.5q139 0 221 -112l-64 -37q-57 76 -157 76q-84 0 -142.5 -58.5t-58.5 -142.5v-305h285v-74h-285v-809h-72z"/>
<glyph unicode="g" d="M106 252v524q0 113 81 194t194 81t192.5 -81t79.5 -194v-524v-326q0 -113 -79.5 -192.5t-192.5 -79.5q-98 0 -176 61l53 54q53 -43 123 -43q82 0 141.5 59t59.5 141v135q-111 -84 -201 -84q-113 0 -194 81t-81 194zM180 252q0 -84 58.5 -143.5t142.5 -59.5t142.5 59.5 t58.5 143.5v524q0 84 -58.5 143.5t-142.5 59.5t-142.5 -59.5t-58.5 -143.5v-524z"/>
<glyph unicode="h" horiz-adv-x="763" d="M100 0v1462h74v-495q111 84 201 84q113 0 193.5 -81t80.5 -194v-776h-74v776q0 84 -58 142.5t-142 58.5t-142.5 -58.5t-58.5 -142.5v-776h-74z"/>
<glyph unicode="i" horiz-adv-x="348" d="M117 1296.5q0 22.5 17.5 40t40 17.5t38.5 -16.5t16 -41t-16 -41t-38.5 -16.5t-40 17.5t-17.5 40zM135 0v987h74v-987h-74z"/>
<glyph unicode="j" horiz-adv-x="436" d="M-80 -309l29 67q23 -8 53 -8q84 0 142.5 59.5t58.5 143.5v1034h71v-1034q0 -113 -79.5 -194t-192.5 -81q-43 1 -82 13zM182 1304.5q0 22.5 16.5 39t41.5 16.5q23 0 39 -16.5t16 -38.5q0 -25 -16.5 -41.5t-39 -16.5t-40 17.5t-17.5 40z"/>
<glyph unicode="k" horiz-adv-x="735" d="M94 0v1462h74v-878h74l272 403h88l-272 -399q135 -10 215 -88t80 -189v-311h-72v311q0 82 -59.5 141.5t-141.5 59.5h-184v-512h-74z"/>
<glyph unicode="l" horiz-adv-x="450" d="M143 1462h72v-1210q0 -78 51 -134.5t127 -66.5v-71q-106 10 -178 87.5t-72 184.5v1210z"/>
<glyph unicode="m" horiz-adv-x="1112" d="M102 0v811q0 98 71 169t169 71q115 0 205 -111q88 111 203 111q100 0 170.5 -71t70.5 -169v-811h-73v811q0 70 -49.5 119t-119 49t-118.5 -49t-49 -119v-811h-72v811q0 70 -49 119t-119 49t-119 -49t-49 -119v-811h-72z"/>
<glyph unicode="n" d="M106 0v776q0 113 81 194t194 81t192.5 -81t79.5 -194v-776h-71v776q0 84 -58.5 143.5t-142.5 59.5t-142.5 -59.5t-58.5 -143.5v-776h-74z"/>
<glyph unicode="o" horiz-adv-x="774" d="M123 252v524q0 113 81 194t193.5 81t193.5 -81t81 -194v-524q0 -113 -81 -194t-193.5 -81t-193.5 81t-81 194zM197 252q0 -84 58 -143.5t142 -59.5t142.5 59.5t58.5 143.5v524q0 84 -58.5 143.5t-142.5 59.5t-142 -59.5t-58 -143.5v-524z"/>
<glyph unicode="p" horiz-adv-x="757" d="M113 -356v1132q0 113 80.5 194t193.5 81t194 -81t81 -194v-524q0 -113 -81 -194t-194 -81q-90 0 -201 84v-417h-73zM186 252q0 -84 58.5 -143.5t142.5 -59.5t142.5 59.5t58.5 143.5v524q0 84 -58.5 143.5t-142.5 59.5t-142.5 -59.5t-58.5 -143.5v-524z"/>
<glyph unicode="q" d="M106 252v524q0 113 81 194t194 81t192.5 -81t79.5 -194v-1132h-71v417q-111 -84 -201 -84q-113 0 -194 81t-81 194zM180 252q0 -84 58.5 -143.5t142.5 -59.5t142.5 59.5t58.5 143.5v524q0 84 -58.5 143.5t-142.5 59.5t-142.5 -59.5t-58.5 -143.5v-524z"/>
<glyph unicode="r" horiz-adv-x="612" d="M102 0v776q0 113 80 194t193 81q139 0 221 -113l-64 -37q-57 78 -157 78q-84 0 -142.5 -59.5t-58.5 -143.5v-776h-72z"/>
<glyph unicode="s" horiz-adv-x="661" d="M66 772q2 119 82 200q79 79 190 79h6q139 -4 219 -119l-63 -37q-57 84 -158 84h-5q-81 0 -138 -60q-62 -65 -62 -156q0 -81 49 -127q51 -48 156 -89q53 -23 88 -41.5t78 -52t64.5 -84t21.5 -113.5q-2 -117 -83 -199q-79 -80 -188 -80h-6q-141 4 -219 119l62 37 q63 -84 157 -84h6q81 0 138 61q62 65 61 155q0 81 -49 125q-51 46 -156 91q-55 23 -87.5 40.5t-76.5 52t-65.5 83.5t-21.5 115z"/>
<glyph unicode="t" horiz-adv-x="528" d="M117 252v997h73v-262h297v-72h-297v-663q0 -84 58.5 -143.5t142.5 -59.5q20 0 53 8l27 -67q-37 -12 -80 -13q-113 0 -193.5 81t-80.5 194z"/>
<glyph unicode="u" horiz-adv-x="774" d="M109 250v737h73v-737q0 -84 58.5 -142.5t142.5 -58.5t142.5 59.5t58.5 141.5v737h71v-737q0 -113 -79.5 -193t-192.5 -80t-193.5 80t-80.5 193z"/>
<glyph unicode="v" horiz-adv-x="821" d="M70 987h75l263 -883l251 883h76l-282 -987h-91z"/>
<glyph unicode="w" horiz-adv-x="1177" d="M49 987h76l211 -860l209 860h59l211 -860l211 860h76l-242 -987h-88l-197 801l-196 -801h-88z"/>
<glyph unicode="x" horiz-adv-x="854" d="M82 0l295 512l-275 475h82l234 -403l233 403h84l-274 -475l295 -512h-84l-254 438l-252 -438h-84z"/>
<glyph unicode="y" horiz-adv-x="784" d="M111 252v735h71v-735q0 -84 58.5 -143.5t142.5 -59.5t143.5 59.5t59.5 143.5v735h71v-1061q0 -113 -80.5 -192.5t-193.5 -79.5q-98 0 -174 63l51 52q51 -43 123 -43q84 0 143.5 58t59.5 142v135q-111 -84 -203 -84q-113 0 -192.5 81t-79.5 194z"/>
<glyph unicode="z" horiz-adv-x="753" d="M98 0l430 915h-417v72h530l-430 -915h418v-72h-531z"/>
<glyph unicode="{" horiz-adv-x="811" d="M51 678v76q90 10 151.5 76.5t61.5 158.5v389q0 125 72 216.5t203 91.5h204v-72h-204q-106 0 -154.5 -77t-48.5 -159v-389q0 -160 -160 -274q160 -111 160 -273v-393q0 -82 48 -158.5t155 -76.5h204v-72h-204q-131 0 -203 91t-72 216v393q0 92 -61.5 159t-151.5 77z"/>
<glyph unicode="|" horiz-adv-x="552" d="M236 -100v1548h71v-1548h-71z"/>
<glyph unicode="}" horiz-adv-x="819" d="M55 -186h207q106 0 153.5 76.5t47.5 158.5v393q0 162 160 273q-160 115 -160 274v389q0 82 -47 159t-154 77h-207v72h207q131 0 202 -91.5t71 -216.5v-389q0 -92 61 -158.5t152 -76.5v-76q-90 -10 -151.5 -76.5t-61.5 -159.5v-393q0 -125 -71 -216t-202 -91h-207v72z"/>
<glyph unicode="~" horiz-adv-x="913" d="M47 657q92 137 248 138q98 0 176 -60q59 -45 129 -45q119 0 184 101l64 -35q-92 -137 -248 -138q-96 0 -174 60q-61 45 -131 45q-117 0 -184 -100z"/>
<glyph horiz-adv-x="587" d="M207 29q88 102 98 235h74q-10 -166 -121 -287z"/>
<glyph horiz-adv-x="1017" d="M-39 -223q96 8 175 68.5t110 177.5l198 784h-194v72h213l69 266q35 137 126.5 218t205.5 81q119 0 211 -72l-51 -53q-70 53 -160 53q-102 0 -168.5 -74.5t-93.5 -171.5l-61 -247h227v-72h-248l-207 -803q-33 -131 -128 -211t-224 -88v72z"/>
<glyph horiz-adv-x="684" d="M162 29q88 102 98 235h72q-10 -166 -119 -287zM293 -102q143 158 153 366h72q-10 -240 -174 -418z"/>
<glyph unicode="" horiz-adv-x="804" d="M94 59.5q0 22.5 16.5 39t41.5 16.5q23 0 39 -16.5t16 -39.5q0 -25 -16.5 -41t-39 -16t-40 17.5t-17.5 40zM338 59q0 23 16.5 39.5t38.5 16.5q25 0 41.5 -16.5t16.5 -39t-17.5 -40t-40 -17.5t-39 16t-16.5 41zM580 59.5q0 22.5 16 39t41 16.5t41 -16.5t16 -39t-17.5 -40 t-40 -17.5t-39.5 17.5t-17 40z"/>
<glyph horiz-adv-x="753" d="M84 709v73h250v205h72v-205h249v-73h-249v-709h-72v709h-250z"/>
<glyph horiz-adv-x="757" d="M86 244v71h250v385h-250v74h250v211h72v-211h249v-74h-249v-385h249v-71h-249v-244h-72v244h-250z"/>
<glyph horiz-adv-x="727" d="M137 1229l219 180l219 -180l-47 -55l-172 139l-174 -139z"/>
<glyph horiz-adv-x="1677" d="M78 881v94q0 82 57.5 139t139 57t140 -57t58.5 -139v-94q0 -82 -58.5 -140.5t-140 -58.5t-139 58.5t-57.5 140.5zM150 881q0 -53 35.5 -89t89 -36t89 35.5t35.5 89.5v94q0 53 -35.5 89t-89 36t-89 -36t-35.5 -89v-94zM164 -6l727 1190l61 -39l-727 -1188zM645 178v94 q0 80 57.5 138.5t139.5 58.5t140 -58.5t58 -138.5v-94q0 -82 -58 -140t-140 -58t-139.5 58t-57.5 140zM717 178q0 -51 37 -89t88 -38t88 38t37 89v94q0 51 -37 88t-88 37t-88 -36.5t-37 -88.5v-94zM1161 178v94q0 80 58.5 138.5t140.5 58.5t139 -58.5t57 -138.5v-94 q0 -82 -57 -140t-139 -58t-140.5 58t-58.5 140zM1235 178q0 -51 37 -89t88 -38t88 38t37 89v94q0 51 -36 88t-89 37t-89 -36.5t-36 -88.5v-94z"/>
<glyph horiz-adv-x="716" d="M129 637l393 381l51 -51l-340 -330l340 -330l-51 -51z"/>
<glyph horiz-adv-x="1353" d="M106 289v850q0 127 91.5 218t218.5 91q162 0 274 -164q96 135 236 135h284v-71h-284q-106 0 -153.5 -77t-47.5 -159v-373h356v-71h-356v-359q0 -84 47 -160.5t154 -76.5h284v-72h-284q-139 0 -238 141q-113 -162 -272 -161q-127 0 -218.5 91t-91.5 218zM178 289 q0 -98 69.5 -168t168 -70t167 69.5t68.5 168.5v850q0 98 -68.5 167.5t-167 69.5t-168 -69.5t-69.5 -167.5v-850z"/>
<glyph horiz-adv-x="581" d="M195 1151q10 166 118 287l52 -52q-88 -102 -99 -235h-71z"/>
<glyph horiz-adv-x="585" d="M207 1184q88 102 98 235h72q-10 -166 -119 -286z"/>
<glyph horiz-adv-x="673" d="M147 1151q10 240 175 418l51 -51q-145 -158 -152 -367h-74zM334 1151q10 166 119 287l51 -52q-88 -102 -98 -235h-72z"/>
<glyph horiz-adv-x="673" d="M158 1184q88 102 98 235h72q-10 -166 -119 -286zM289 1053q143 154 153 366h72q-10 -240 -174 -418z"/>
<glyph horiz-adv-x="636" d="M182 581.5q0 53.5 38 91.5t93 38q53 0 91 -38t38 -91.5t-37.5 -91t-91.5 -37.5q-55 0 -93 37.5t-38 91z"/>
<glyph horiz-adv-x="745" d="M137 463v72h455v-72h-455z"/>
<glyph horiz-adv-x="897" d="M63 463v72h752v-72h-752z"/>
<glyph d="M117 1257q61 88 166 89q63 0 120 -41q39 -27 76 -27q61 0 103 51l63 -35q-61 -88 -166 -88q-68 0 -121 41q-37 27 -75 27q-63 0 -105 -51z"/>
<glyph horiz-adv-x="954" d="M25 1376v54h301v-54h-125v-456h-51v456h-125zM492 920v510h65l145 -295l144 295h65v-510h-51v415l-143 -291h-31l-143 291v-415h-51z"/>
<glyph horiz-adv-x="702" d="M123 307l338 330l-338 330l49 51l393 -381l-393 -381z"/>
<glyph horiz-adv-x="1216" d="M102 254v524q0 113 80 194t193 81q139 0 237 -135q102 135 238 135q113 0 193.5 -81t80.5 -194v-344h-475v-180q0 -84 58.5 -143.5t142.5 -59.5q70 0 125 43l51 -51q-76 -63 -176 -63q-135 0 -238 135q-98 -135 -237 -135q-113 0 -193 80.5t-80 193.5zM174 254 q0 -84 58.5 -143.5t142.5 -59.5t143.5 59.5t59.5 143.5v524q0 84 -59.5 143.5t-143.5 59.5t-142.5 -59.5t-58.5 -143.5v-524zM649 506h402v272q0 84 -58.5 143.5t-142.5 59.5t-142.5 -59.5t-58.5 -143.5v-272z"/>
<glyph horiz-adv-x="856" d="M37 1430h78l305 -850l305 850h78l-346 -963v-467h-74v467zM248 1632.5q0 22.5 17.5 40t40 17.5t38.5 -16.5t16 -41.5q0 -23 -16 -39t-39 -16q-25 0 -41 16.5t-16 39zM481 1632q0 25 16.5 41.5t39 16.5t40 -17.5t17.5 -40t-16.5 -39t-40.5 -16.5q-23 0 -39.5 16t-16.5 39z "/>
<glyph unicode="¡" horiz-adv-x="552" d="M215 1376.5q0 22.5 16.5 39t40.5 16.5q23 0 39.5 -16.5t16.5 -39.5q0 -25 -16.5 -41t-39 -16t-40 17.5t-17.5 40zM236 0v1139h71v-1139h-71z"/>
<glyph unicode="¢" horiz-adv-x="727" d="M104 549v149q0 98 66 174t172 99v237h72v-237q123 -29 184 -111l-61 -37q-59 76 -160 76q-84 0 -142.5 -58.5t-58.5 -142.5v-149q0 -82 59.5 -141.5t141.5 -59.5q98 0 160 78l61 -39q-66 -86 -184 -108v-238h-72v238q-106 20 -172 96t-66 174z"/>
<glyph unicode="£" horiz-adv-x="946" d="M66 0v74q90 10 151.5 76.5t61.5 158.5v348h-207v72h207v406q0 127 91 218t218 91q86 0 158.5 -44t113.5 -120l-65 -29q-68 121 -207 121q-98 0 -168 -68.5t-70 -168.5v-406h359v-72h-359v-348q0 -111 -102 -237h352q139 0 207 121l67 -29q-41 -76 -114.5 -120t-159.5 -44 h-534z"/>
<glyph unicode="¤" horiz-adv-x="839" d="M37 512v74h158v166h-158v71h158v312q0 127 91 218t218 91q88 0 160.5 -44t113.5 -122l-67 -29q-31 57 -86.5 90t-120.5 33q-98 0 -168 -68.5t-70 -168.5v-312h369v-71h-369v-166h369v-74h-369v-225q0 -98 70 -168t168 -70q141 0 207 125l67 -29q-39 -78 -112.5 -123 t-161.5 -45q-127 0 -218 91.5t-91 218.5v225h-158z"/>
<glyph unicode="¥" horiz-adv-x="868" d="M29 1430h80l317 -850l319 850h78l-245 -656h186v-74h-213l-64 -165h277v-72h-301v-463h-72v463h-303v72h279l-64 165h-215v74h186z"/>
<glyph unicode="§" horiz-adv-x="737" d="M113 551q0 100 125 182q-115 76 -115 174q2 86 76 149q71 60 173 60h7q119 0 196 -84l-59 -41q-57 53 -139 53q-3 0 -7 1q-66 0 -117 -38q-56 -42 -56 -107q0 -52 42 -80q44 -30 138 -60q53 -16 84 -29.5t71.5 -39t59 -62.5t18.5 -86q-4 -102 -127 -185q64 -39 90 -77 q25 -36 25 -87q0 -92 -76 -156q-71 -60 -171 -61h-7q-119 0 -197 84l60 41q53 -53 137 -53h7q66 0 119 38q56 40 56 101q0 49 -42 82t-140 64q-51 16 -83 29.5t-71.5 39t-58 62.5t-18.5 86zM184 544q0 -50 41 -78q43 -30 135 -60q70 2 123.5 41.5t55.5 97.5v4q0 48 -41 78 q-43 31 -135 61q-72 -2 -124 -41q-55 -40 -55 -103z"/>
<glyph unicode="¨" horiz-adv-x="686" d="M162 1249.5q0 22.5 17.5 40t40 17.5t38.5 -16.5t16 -41t-16 -41t-38.5 -16.5t-40 17.5t-17.5 40zM395 1249.5q0 22.5 17.5 40t40 17.5t39 -16.5t16.5 -41t-16.5 -41t-39 -16.5t-40 17.5t-17.5 40z"/>
<glyph unicode="©" horiz-adv-x="970" d="M0 453v139q0 197 140.5 336t334.5 139q197 0 337 -139.5t140 -335.5v-139q0 -197 -140 -336.5t-337 -139.5q-195 0 -335 139.5t-140 336.5zM74 453q0 -168 117.5 -286t283.5 -118q168 0 286 118t118 286v139q0 168 -118 285.5t-286 117.5q-166 0 -283.5 -117.5 t-117.5 -285.5v-139zM233 453v139q0 100 71 172t171 72q123 0 195 -99l-64 -37q-49 61 -131 62q-70 0 -120 -49t-50 -121v-139q0 -72 50.5 -121t119.5 -49q82 0 131 61l64 -37q-72 -98 -195 -98q-100 0 -171 72t-71 172z"/>
<glyph unicode="ª" horiz-adv-x="731" d="M119 561v74h479v-74h-479zM141 975v31q0 88 62.5 151.5t152.5 63.5q59 0 142 -50v66q0 59 -42 100t-100 41q-49 0 -82 -26l-53 53q59 47 135 47q88 0 151.5 -63.5t63.5 -151.5v-262q0 -88 -63.5 -151.5t-151.5 -63.5t-151.5 63.5t-63.5 151.5zM213 975q0 -57 42 -99 t101 -42q57 0 99.5 42t42.5 99v31q0 59 -42 101t-100 42q-59 0 -101 -42t-42 -101v-31z"/>
<glyph unicode="«" horiz-adv-x="874" d="M51 637l393 381l52 -51l-338 -330l338 -330l-52 -51zM362 637l394 381l49 -51l-338 -330l338 -330l-49 -51z"/>
<glyph unicode="¬" horiz-adv-x="792" d="M104 596v72h568v-387h-74v315h-494z"/>
<glyph unicode="­" horiz-adv-x="679" d="M160 444v72h346v-72h-346z"/>
<glyph unicode="®" horiz-adv-x="950" d="M14 430v354q0 186 132.5 319.5t318.5 133.5t319.5 -133t133.5 -320v-354q0 -188 -133.5 -320.5t-319.5 -132.5t-318.5 133.5t-132.5 319.5zM86 430q0 -158 110.5 -269.5t268.5 -111.5t269.5 111.5t111.5 269.5v354q0 158 -111.5 268.5t-269.5 110.5t-268.5 -110.5 t-110.5 -268.5v-354zM250 324v460q0 88 63.5 152.5t151.5 64.5t152.5 -64.5t64.5 -152.5q0 -141 -154 -209l160 -251h-84l-155 243h-127v-243h-72zM322 641h143q59 0 102 42t43 101.5t-43 101.5t-102 42t-101 -42t-42 -102v-143z"/>
<glyph unicode="¯" horiz-adv-x="739" d="M133 1239v74h459v-74h-459z"/>
<glyph unicode="°" horiz-adv-x="720" d="M137 1233q0 88 63.5 151.5t151.5 63.5t151.5 -63.5t63.5 -151.5q0 -90 -62.5 -152.5t-152.5 -62.5q-88 0 -151.5 63.5t-63.5 151.5zM211 1233q0 -59 42 -101t99 -42q59 0 101.5 41.5t42.5 101.5q0 57 -42 99t-102 42q-57 0 -99 -42t-42 -99z"/>
<glyph unicode="±" horiz-adv-x="804" d="M55 76v71h678v-71h-678zM55 586v71h303v304h72v-304h303v-71h-303v-303h-72v303h-303z"/>
<glyph unicode="²" horiz-adv-x="876" d="M133 0v111q0 184 100 329q53 82 211 226l88 82q147 147 148 294v93q0 100 -69.5 168.5t-168.5 68.5q-92 0 -158.5 -61.5t-76.5 -151.5h-74q10 121 99.5 203t209.5 82q127 0 218.5 -91t91.5 -218v-93q0 -70 -19.5 -129t-63.5 -116.5t-78 -91l-99 -93.5 q-143 -127 -197 -206q-90 -127 -90 -295v-39h540v-72h-612z"/>
<glyph unicode="³" horiz-adv-x="876" d="M135 262h74q10 -90 76.5 -151.5t158.5 -61.5q98 0 167 69.5t69 168.5v168q0 100 -68.5 168.5t-167.5 68.5h-77v72h77q98 0 167 69.5t69 167.5v134q0 100 -68.5 168.5t-167.5 68.5q-74 0 -133 -40t-86 -105l-69 22q35 86 113.5 140.5t174.5 54.5q127 0 218.5 -91 t91.5 -218v-134q0 -160 -162 -272q162 -117 162 -274v-168q0 -127 -91.5 -218.5t-218.5 -91.5q-121 0 -210 82t-99 203z"/>
<glyph unicode="´" horiz-adv-x="630" d="M162 1251l250 201l45 -55l-248 -201z"/>
<glyph unicode="µ" horiz-adv-x="915" d="M90 252v735h74v-735q0 -84 58.5 -143.5t142.5 -59.5t142 59.5t58 143.5v735h74v-700q0 -90 60.5 -158t150.5 -78v-74q-137 12 -242 150q-98 -150 -243 -150q-90 0 -201 84v-417h-74v608z"/>
<glyph unicode="¶" horiz-adv-x="989" d="M49 1120q0 127 91 218.5t218 91.5h510v-1428h-71v1356h-219v-1356h-74v809h-146q-127 0 -218 91t-91 218zM121 1120q0 -98 68.5 -166.5t168.5 -68.5h146v473h-146q-100 0 -168.5 -69t-68.5 -169z"/>
<glyph unicode="·" horiz-adv-x="565" d="M221 549q0 23 16.5 39t38.5 16q25 0 41.5 -16.5t16.5 -39t-17.5 -39.5t-40 -17t-39 16t-16.5 41z"/>
<glyph unicode="¸" horiz-adv-x="602" d="M178 -135l70 141l47 -22l-33 -70q76 -8 117 -46t41 -93.5t-40 -95t-95 -39.5q-61 0 -103 45l47 28q23 -23 56 -22q35 0 59.5 24.5t24.5 59.5t-25 59.5t-59 24.5q-31 0 -58 -23z"/>
<glyph unicode="¹" horiz-adv-x="514" d="M119 1358v72h209v-1430h-72v1358h-137z"/>
<glyph unicode="º" horiz-adv-x="731" d="M121 561v74h477v-74h-477zM143 975v262q0 88 63.5 151.5t151.5 63.5t151.5 -63.5t63.5 -151.5v-262q0 -88 -63.5 -151.5t-151.5 -63.5t-151.5 63.5t-63.5 151.5zM215 975q0 -59 42 -100t101.5 -41t101.5 40.5t42 100.5v262q0 57 -42 99t-101.5 42t-101.5 -42t-42 -99 v-262z"/>
<glyph unicode="»" horiz-adv-x="854" d="M43 307l338 330l-338 330l49 51l393 -381l-393 -381zM352 307l340 330l-340 330l51 51l394 -381l-394 -381z"/>
<glyph unicode="¿" d="M72 287v151q0 86 25.5 146.5t51 84t70.5 52.5q43 29 64.5 50.5t41 76.5t19.5 137v125h74v-125q0 -102 -29 -173t-54.5 -94.5t-76.5 -55.5q-41 -29 -61.5 -47.5t-37 -63.5t-16.5 -113v-151q0 -98 70 -168t168 -70t167.5 69.5t69.5 168.5v78h72v-78q0 -127 -91 -218.5 t-218 -91.5t-218 91.5t-91 218.5zM324 1366q0 23 16 39t41 16q23 0 39 -16t16 -39q0 -25 -16.5 -41t-39 -16t-39.5 17t-17 40z"/>
<glyph unicode="À" horiz-adv-x="819" d="M92 0v1139q0 127 91 218t218 91t218.5 -91t91.5 -218v-1139h-72v479h-475v-479h-72zM164 551h475v588q0 98 -69.5 166.5t-168 68.5t-168 -68.5t-69.5 -166.5v-588zM250 1778l45 57l248 -203l-45 -55z"/>
<glyph unicode="Á" horiz-adv-x="819" d="M92 0v1135q0 127 91 218t218 91t218.5 -91t91.5 -218v-1135h-74v479h-473v-479h-72zM164 551h473v584q0 100 -68.5 168.5t-167 68.5t-168 -68.5t-69.5 -168.5v-584zM262 1632l248 203l45 -55l-248 -203z"/>
<glyph unicode="Â" horiz-adv-x="819" d="M92 0v1135q0 127 91 218t218 91t218.5 -91t91.5 -218v-1135h-74v479h-473v-479h-72zM164 551h473v584q0 100 -68.5 168.5t-167 68.5t-168 -68.5t-69.5 -168.5v-584zM184 1653l217 176l217 -176l-43 -47l-174 141l-176 -141z"/>
<glyph unicode="Ã" horiz-adv-x="819" d="M92 0v1139q0 127 91 218t218 91t218.5 -91t91.5 -218v-1139h-72v479h-475v-479h-72zM102 1630q57 106 168 123q10 1 19 1q50 0 104 -36q20 -16 31 -22q53 -44 93 -44q5 0 9 1q68 10 107 78l67 -29q-59 -109 -165 -121q-9 -1 -20 -1q-63 0 -134 58q-53 44 -93 44 q-5 0 -9 -1q-68 -8 -109 -77zM164 551h475v588q0 98 -69.5 166.5t-168 68.5t-168 -68.5t-69.5 -166.5v-588z"/>
<glyph unicode="Ä" horiz-adv-x="819" d="M92 0v1135q0 127 91 218t218 91t218.5 -91t91.5 -218v-1135h-74v479h-473v-479h-72zM164 551h473v584q0 100 -68.5 168.5t-167 68.5t-168 -68.5t-69.5 -168.5v-584zM227 1632.5q0 22.5 17.5 40t40 17.5t39 -16.5t16.5 -41.5q0 -23 -16.5 -39t-38.5 -16q-25 0 -41.5 16.5 t-16.5 39zM461 1632.5q0 22.5 17.5 40t40 17.5t38.5 -16.5t16 -41.5q0 -23 -16 -39t-39 -16q-25 0 -41 16.5t-16 39z"/>
<glyph unicode="Å" horiz-adv-x="819" d="M92 0v1135q0 127 91 218t218 91t218.5 -91t91.5 -218v-1135h-74v479h-473v-479h-72zM164 551h473v584q0 100 -68.5 168.5t-167 68.5t-168 -68.5t-69.5 -168.5v-584zM270 1691.5q0 53.5 39 92.5t92.5 39t92 -39t38.5 -92.5t-38.5 -92t-92 -38.5t-92.5 38.5t-39 92z M301 1692q0 -41 29.5 -70t70.5 -29t70 29t29 70t-29 70.5t-70 29.5t-70.5 -29.5t-29.5 -70.5z"/>
<glyph unicode="Æ" horiz-adv-x="1302" d="M96 0v1135q0 127 91.5 218t218.5 91q162 0 274 -162q102 147 235 148h285v-72h-285q-76 0 -124 -48t-62 -99.5t-14 -100.5v-381h358v-72h-358v-348q0 -84 47 -160.5t153 -76.5h285v-72h-285q-131 0 -202.5 92t-71.5 217v348h-473v-657h-72zM168 729h473v406 q0 100 -68.5 168.5t-167 68.5t-168 -68.5t-69.5 -168.5v-406z"/>
<glyph unicode="Ç" horiz-adv-x="763" d="M78 289v850q0 127 91 218t218 91q88 0 162 -45t113 -123l-66 -27q-68 121 -209 121q-98 0 -166.5 -68.5t-68.5 -166.5v-850q0 -98 68.5 -168t166.5 -70q141 0 209 121l66 -27q-37 -74 -111 -118.5t-168 -46.5l-41 -84q86 -4 134 -47.5t48 -104.5t-44 -105 q-44 -45 -105 -45q-66 0 -113 54l45 26q33 -29 68 -28q41 0 69.5 28.5t28.5 69.5q0 39 -28.5 67.5t-69.5 28.5q-39 0 -68 -28l-49 28l70 142q-117 35 -183.5 118t-66.5 189z"/>
<glyph unicode="È" horiz-adv-x="747" d="M88 274v1156h557v-72h-485v-596h358v-74h-358v-414q0 -84 58 -143t142 -59h285v-72h-285q-113 0 -192.5 80.5t-79.5 193.5zM211 1778l47 57l248 -203l-45 -55z"/>
<glyph unicode="É" horiz-adv-x="747" d="M88 274v1156h557v-72h-485v-596h358v-74h-358v-414q0 -84 58 -143t142 -59h285v-72h-285q-113 0 -192.5 80.5t-79.5 193.5zM254 1632l248 203l47 -57l-250 -201z"/>
<glyph unicode="Ê" horiz-adv-x="747" d="M88 274v1156h557v-72h-485v-596h358v-74h-358v-414q0 -84 58 -143t142 -59h285v-72h-285q-113 0 -192.5 80.5t-79.5 193.5zM180 1653l217 176l217 -176l-43 -47l-174 141l-176 -141z"/>
<glyph unicode="Ë" horiz-adv-x="747" d="M88 274v1156h557v-72h-485v-596h358v-74h-358v-414q0 -84 58 -143t142 -59h285v-72h-285q-113 0 -192.5 80.5t-79.5 193.5zM195 1632q0 25 16 41.5t38.5 16.5t40 -17.5t17.5 -40t-16.5 -39t-40.5 -16.5q-23 0 -39 16t-16 39zM426 1632.5q0 22.5 17.5 40t40 17.5t39 -16.5 t16.5 -41.5q0 -23 -16.5 -39t-39.5 -16q-25 0 -41 16.5t-16 39z"/>
<glyph unicode="Ì" horiz-adv-x="630" d="M162 1778l47 57l248 -203l-45 -55zM279 0v1430h71v-1430h-71z"/>
<glyph unicode="Í" horiz-adv-x="630" d="M162 1632l250 203l45 -57l-248 -201zM268 0v1430h72v-1430h-72z"/>
<glyph unicode="Î" horiz-adv-x="700" d="M125 1655l219 176l217 -176l-43 -47l-174 141l-176 -141zM309 0v1430h74v-1430h-74z"/>
<glyph unicode="Ï" horiz-adv-x="647" d="M143 1632.5q0 22.5 17.5 40t40.5 17.5q53 0 55 -74q-10 -39 -55 -39q-25 0 -41.5 16.5t-16.5 39zM283 0v1430h71v-1430h-71zM377 1632.5q0 22.5 17.5 40t40 17.5t38.5 -16.5t16 -41.5q0 -23 -16 -39t-39 -16q-25 0 -41 16.5t-16 39z"/>
<glyph unicode="Ñ" horiz-adv-x="819" d="M92 0v1430h86l461 -1260v1260h72v-1430h-86l-461 1253v-1253h-72zM102 1630q57 111 168 123q10 1 19 1q50 0 104 -36q20 -16 31 -22q53 -44 93 -44q5 0 9 1q68 10 107 78l67 -29q-59 -109 -165 -121q-9 -1 -20 -1q-63 0 -134 58q-53 44 -93 44q-5 0 -9 -1 q-68 -8 -109 -77z"/>
<glyph unicode="Ò" horiz-adv-x="815" d="M90 287v848q0 127 91 218t218 91t218.5 -91t91.5 -218v-848q0 -127 -91.5 -218.5t-218.5 -91.5t-218 91.5t-91 218.5zM164 287q0 -98 68.5 -168t167 -70t168 69.5t69.5 168.5v848q0 100 -69.5 168.5t-168 68.5t-167 -68.5t-68.5 -168.5v-848zM248 1778l45 57l248 -203 l-45 -55z"/>
<glyph unicode="Ó" horiz-adv-x="815" d="M90 287v848q0 127 91 218t218 91t218.5 -91t91.5 -218v-848q0 -127 -91.5 -218.5t-218.5 -91.5t-218 91.5t-91 218.5zM164 287q0 -98 68.5 -168t167 -70t168 69.5t69.5 168.5v848q0 100 -69.5 168.5t-168 68.5t-167 -68.5t-68.5 -168.5v-848zM258 1632l248 203l45 -57 l-248 -201z"/>
<glyph unicode="Ô" horiz-adv-x="815" d="M90 287v848q0 127 91 218t218 91t218.5 -91t91.5 -218v-848q0 -127 -91.5 -218.5t-218.5 -91.5t-218 91.5t-91 218.5zM164 287q0 -98 68.5 -168t167 -70t168 69.5t69.5 168.5v848q0 100 -69.5 168.5t-168 68.5t-167 -68.5t-68.5 -168.5v-848zM180 1651l219 178l219 -178 l-45 -56l-174 140l-172 -140z"/>
<glyph unicode="Õ" horiz-adv-x="817" d="M90 289v850q0 127 91 218t218 91t218.5 -91t91.5 -218v-850q0 -127 -91.5 -218t-218.5 -91t-218 91t-91 218zM100 1630q57 111 168 123q9 1 19 1q50 0 106 -36q20 -16 31 -22q53 -44 91 -44q5 0 9 1q68 10 107 78l67 -29q-55 -109 -166 -121q-9 -1 -19 -1q-63 0 -134 58 q-53 44 -93 44q-5 0 -10 -1q-70 -12 -108 -77zM164 289q0 -98 68.5 -168t167 -70t168 69.5t69.5 168.5v850q0 98 -69.5 166.5t-168 68.5t-167 -68.5t-68.5 -166.5v-850z"/>
<glyph unicode="Ö" horiz-adv-x="815" d="M90 287v848q0 127 91 218t218 91t218.5 -91t91.5 -218v-848q0 -127 -91.5 -218.5t-218.5 -91.5t-218 91.5t-91 218.5zM164 287q0 -98 68.5 -168t167 -70t168 69.5t69.5 168.5v848q0 100 -69.5 168.5t-168 68.5t-167 -68.5t-68.5 -168.5v-848zM227 1632q0 25 16.5 41.5 t39 16.5t40 -17.5t17.5 -40t-16.5 -39t-40.5 -16.5q-23 0 -39.5 16t-16.5 39zM459 1632.5q0 22.5 17.5 40t40 17.5t39.5 -17.5t17 -40t-16 -39t-40.5 -16.5t-41 16.5t-16.5 39z"/>
<glyph unicode="Ø" horiz-adv-x="917" d="M2 -6l141 250q-4 18 -4 43v848q0 127 91.5 218t218.5 91q162 0 278 -168l107 190l63 -34l-143 -254q4 -18 4 -43v-848q0 -127 -91.5 -218.5t-217.5 -91.5q-162 0 -279 168l-107 -188zM211 365l467 827q-23 82 -86.5 131t-142.5 49q-98 0 -168 -68.5t-70 -168.5v-770z M219 231q23 -82 85.5 -132t144.5 -50q98 0 167.5 69.5t69.5 168.5v770z"/>
<glyph unicode="Ù" horiz-adv-x="825" d="M94 287v1143h74v-1143q0 -98 68.5 -168t167 -70t168 69.5t69.5 168.5v1143h72v-1143q0 -127 -91.5 -218.5t-218.5 -91.5t-218 91.5t-91 218.5zM252 1778l45 57l250 -203l-47 -55z"/>
<glyph unicode="Ú" horiz-adv-x="825" d="M94 287v1143h74v-1143q0 -98 68.5 -168t167 -70t168 69.5t69.5 168.5v1143h72v-1143q0 -127 -91.5 -218.5t-218.5 -91.5t-218 91.5t-91 218.5zM262 1632l248 203l47 -57l-250 -201z"/>
<glyph unicode="Û" horiz-adv-x="825" d="M94 287v1143h74v-1143q0 -98 68.5 -168t167 -70t168 69.5t69.5 168.5v1143h72v-1143q0 -127 -91.5 -218.5t-218.5 -91.5t-218 91.5t-91 218.5zM184 1651l219 178l220 -178l-45 -56l-175 140l-172 -140z"/>
<glyph unicode="Ü" horiz-adv-x="825" d="M94 287v1143h74v-1143q0 -98 68.5 -168t167 -70t168 69.5t69.5 168.5v1143h72v-1143q0 -127 -91.5 -218.5t-218.5 -91.5t-218 91.5t-91 218.5zM231 1632q0 25 16.5 41.5t39 16.5t40 -17.5t17.5 -40t-16.5 -39t-40.5 -16.5q-23 0 -39.5 16t-16.5 39zM465 1632 q0 25 16.5 41.5t39 16.5t40 -17.5t17.5 -40t-16.5 -39t-41.5 -16.5q-23 0 -39 16t-16 39z"/>
<glyph unicode="Ý" horiz-adv-x="856" d="M37 1430h78l305 -850l305 850h78l-346 -963v-467h-74v467zM373 1622l250 201l45 -56l-248 -200z"/>
<glyph unicode="ß" horiz-adv-x="925" d="M29 979v72h153v149q0 94 67.5 162t162.5 68h114q94 0 162 -68t68 -162v-100q0 -94 -67.5 -162t-162.5 -68q-23 0 -39 -16t-16 -37q0 -23 16.5 -39t38.5 -16h47q127 0 216.5 -90t89.5 -215v-174q0 -127 -89.5 -216.5t-216.5 -89.5q-66 0 -120 25l32 64q45 -16 88 -17 q96 0 164 68.5t68 165.5v174q0 96 -67.5 164.5t-164.5 68.5h-47q-51 0 -89 38t-38 89t38 88t89 37q66 0 112 46t46 112v100q0 66 -46 112t-112 46h-114q-66 0 -112 -46t-46 -112v-1200h-72v979h-153z"/>
<glyph unicode="à" horiz-adv-x="770" d="M104 252v201q0 113 80 193.5t193 80.5q92 0 203 -84v133q0 84 -59.5 143.5t-143.5 59.5q-66 0 -125 -43l-51 51q80 63 176 64q115 0 194.5 -81t79.5 -194v-524q0 -113 -79.5 -194t-194.5 -81q-113 0 -193 81t-80 194zM147 1395l46 55l247 -203l-45 -55zM176 252 q0 -84 58.5 -143.5t142.5 -59.5t143.5 59.5t59.5 143.5v201q0 84 -59.5 142t-143.5 58t-142.5 -58t-58.5 -142v-201z"/>
<glyph unicode="á" d="M106 252v201q0 113 81 193.5t194 80.5q90 0 201 -84v133q0 84 -58.5 143.5t-142.5 59.5q-70 0 -125 -43l-51 51q80 63 176 64q113 0 193.5 -81t80.5 -194v-524q0 -113 -80.5 -194t-193.5 -81t-194 81t-81 194zM180 252q0 -84 58.5 -143.5t142.5 -59.5t142.5 59.5 t58.5 143.5v201q0 84 -58.5 142t-142.5 58t-142.5 -58t-58.5 -142v-201zM317 1247l248 203l47 -55l-250 -203z"/>
<glyph unicode="â" d="M109 252v201q0 113 79.5 193.5t192.5 80.5q88 0 203 -82v131q0 84 -59.5 143.5t-143.5 59.5q-66 0 -125 -43l-51 51q80 63 176 64q115 0 194.5 -81t79.5 -194v-524q0 -113 -79.5 -194t-194.5 -81q-113 0 -192.5 81t-79.5 194zM164 1231l217 178l219 -178l-43 -47 l-176 141l-174 -141zM180 252q0 -84 58.5 -143.5t142.5 -59.5t143.5 59.5t59.5 143.5v201q0 84 -59.5 142t-143.5 58t-142.5 -58t-58.5 -142v-201z"/>
<glyph unicode="ã" horiz-adv-x="774" d="M111 252v201q0 113 79.5 193.5t192.5 80.5q88 0 203 -82v131q0 84 -59.5 143.5t-143.5 59.5q-66 0 -125 -43l-51 51q80 63 176 64q113 0 193.5 -81t80.5 -194v-524q0 -113 -80.5 -194t-193.5 -81t-192.5 81t-79.5 194zM113 1257q66 88 166 89q68 0 120 -41q37 -27 78 -27 q61 0 103 51l63 -35q-66 -88 -166 -88q-63 0 -123 39q-33 29 -75 29q-61 0 -103 -51zM182 252q0 -84 58.5 -143.5t142.5 -59.5t143.5 59.5t59.5 143.5v201q0 84 -59.5 142t-143.5 58t-142.5 -58t-58.5 -142v-201z"/>
<glyph unicode="ä" horiz-adv-x="780" d="M109 252v201q0 113 80.5 193.5t193.5 80.5q90 0 201 -84v133q0 84 -58.5 143.5t-142.5 59.5q-70 0 -125 -43l-51 51q80 63 176 64q113 0 193.5 -81t80.5 -194v-524q0 -113 -80.5 -194t-193.5 -81t-193.5 81t-80.5 194zM182 252q0 -84 58.5 -143.5t142.5 -59.5t142.5 59.5 t58.5 143.5v201q0 84 -58.5 142t-142.5 58t-142.5 -58t-58.5 -142v-201zM211 1247.5q0 22.5 16.5 39t40.5 16.5q23 0 39.5 -16.5t16.5 -39.5q0 -25 -16.5 -41t-39 -16t-40 17.5t-17.5 40zM444 1247q0 23 16.5 39.5t39.5 16.5q25 0 41 -16.5t16 -39t-17.5 -40t-40 -17.5 t-39 16t-16.5 41z"/>
<glyph unicode="å" d="M106 252v201q0 113 81 193.5t194 80.5q90 0 201 -84v133q0 84 -58.5 143.5t-142.5 59.5q-70 0 -125 -43l-51 51q76 63 176 64q113 0 192.5 -81t79.5 -194v-524q0 -113 -79.5 -194t-192.5 -81t-194 81t-81 194zM180 252q0 -84 58.5 -143.5t142.5 -59.5t142.5 59.5 t58.5 143.5v201q0 84 -58.5 142t-142.5 58t-142.5 -58t-58.5 -142v-201zM250 1315q0 53 39 92t92 39t92 -39t39 -92t-39 -92t-92 -39t-92 39t-39 92zM281 1315q0 -43 29.5 -72t70.5 -29t69.5 30t28.5 71t-28.5 69.5t-69.5 28.5t-70.5 -28.5t-29.5 -69.5z"/>
<glyph unicode="æ" horiz-adv-x="1216" d="M76 252v201q0 113 80 193.5t192 80.5q88 0 203 -82v131q0 84 -59.5 143.5t-143.5 59.5q-66 0 -125 -43l-51 51q80 63 176 64q139 0 238 -136q102 135 237 136q113 0 194 -81t81 -194v-309v-37h-475v-178q0 -84 58 -143.5t142 -59.5q70 0 125 43l51 -51q-76 -63 -176 -64 q-135 0 -237 136q-98 -135 -238 -136q-113 0 -192.5 81t-79.5 194zM147 252q0 -84 58.5 -143.5t142.5 -59.5t143.5 59.5t59.5 143.5v201q0 84 -59.5 142t-143.5 58t-142.5 -58t-58.5 -142v-201zM623 504h401v272q0 84 -58.5 143.5t-142.5 59.5t-142 -59.5t-58 -143.5v-272z "/>
<glyph unicode="ç" horiz-adv-x="722" d="M102 254v524q0 113 80 194t193 81q137 0 221 -111l-64 -39q-57 78 -157 78q-84 0 -142.5 -59.5t-58.5 -143.5v-524q0 -84 58.5 -143.5t142.5 -59.5q100 0 157 78l64 -37q-74 -100 -207 -112l-37 -66q78 -8 119 -46t41 -93.5t-40 -95t-95 -39.5q-61 0 -103 45l48 28 q23 -23 55 -22q35 0 59.5 24.5t24.5 59.5t-24.5 59.5t-59.5 24.5q-33 0 -55 -23l-52 29l60 119q-106 29 -167 102.5t-61 167.5z"/>
<glyph unicode="è" horiz-adv-x="747" d="M92 254v524q0 113 81 194t193.5 81t193.5 -81t81 -194v-344h-475v-180q0 -84 58.5 -143.5t142.5 -59.5q70 0 125 43l51 -51q-76 -63 -176 -63q-113 0 -194 80.5t-81 193.5zM135 1395l47 55l248 -203l-45 -55zM166 506h401v272q0 84 -58 143.5t-142 59.5t-142.5 -59.5 t-58.5 -143.5v-272z"/>
<glyph unicode="é" horiz-adv-x="751" d="M94 254v524q0 113 81 194t193.5 81t193.5 -81t81 -194v-344h-475v-180q0 -84 58.5 -143.5t142.5 -59.5q70 0 125 43l51 -51q-76 -63 -176 -63q-113 0 -194 80.5t-81 193.5zM168 506h401v272q0 84 -58 143.5t-142 59.5t-142.5 -59.5t-58.5 -143.5v-272zM305 1247l248 203 l47 -55l-250 -203z"/>
<glyph unicode="ê" horiz-adv-x="751" d="M94 254v524q0 113 81 194t193.5 81t193.5 -81t81 -194v-344h-475v-180q0 -84 58.5 -143.5t142.5 -59.5q70 0 125 43l51 -51q-76 -63 -176 -63q-113 0 -194 80.5t-81 193.5zM152 1231l217 178l219 -178l-43 -47l-176 141l-174 -141zM168 506h401v272q0 84 -58 143.5 t-142 59.5t-142.5 -59.5t-58.5 -143.5v-272z"/>
<glyph unicode="ë" horiz-adv-x="751" d="M94 254v524q0 113 81 194t193.5 81t192.5 -81t80 -194v-344h-473v-180q0 -84 58.5 -143.5t142.5 -59.5q70 0 125 43l51 -51q-80 -63 -176 -63q-113 0 -194 80.5t-81 193.5zM168 506h401v272q0 84 -58 143.5t-142 59.5t-142.5 -59.5t-58.5 -143.5v-272zM197 1249.5 q0 24.5 16 41t38.5 16.5t40 -17.5t17.5 -40t-17.5 -40t-40 -17.5t-38.5 16.5t-16 41zM430 1249.5q0 24.5 16.5 41t39 16.5t40 -17.5t17.5 -40t-17.5 -40t-40 -17.5t-39 16.5t-16.5 41z"/>
<glyph unicode="ì" horiz-adv-x="458" d="M-6 1419l45 56l248 -201l-45 -57zM186 0v987h74v-987h-74z"/>
<glyph unicode="í" horiz-adv-x="464" d="M162 1274l250 201l45 -56l-248 -202zM188 0v987h72v-987h-72z"/>
<glyph unicode="î" horiz-adv-x="546" d="M53 1231l217 178l219 -178l-43 -47l-176 141l-174 -141zM236 0v987h71v-987h-71z"/>
<glyph unicode="ï" horiz-adv-x="516" d="M84 1249.5q0 24.5 16.5 41t39 16.5t40 -17.5t17.5 -40t-17.5 -40t-40 -17.5t-39 16.5t-16.5 41zM219 0v987h72v-987h-72zM315 1249.5q0 22.5 17.5 40t40 17.5t39 -16.5t16.5 -41t-16.5 -41t-39 -16.5t-40 17.5t-17.5 40z"/>
<glyph unicode="ñ" d="M111 0v776q0 113 79.5 194t194.5 81q113 0 192.5 -81t79.5 -194v-776h-71v776q0 84 -58.5 143.5t-142.5 59.5t-143.5 -59.5t-59.5 -143.5v-776h-71zM115 1257q61 88 166 89q63 0 120 -41q39 -27 76 -27q61 0 103 51l63 -35q-61 -88 -166 -88q-68 0 -121 41q-33 27 -75 27 q-61 0 -103 -51z"/>
<glyph unicode="ò" horiz-adv-x="770" d="M104 252v524q0 113 80 194t193 81q115 0 194.5 -81t79.5 -194v-524q0 -113 -79.5 -194t-194.5 -81q-113 0 -193 81t-80 194zM147 1419l46 56l247 -201l-45 -57zM176 252q0 -84 58.5 -143.5t142.5 -59.5t143.5 59.5t59.5 143.5v524q0 84 -59.5 143.5t-143.5 59.5 t-142.5 -59.5t-58.5 -143.5v-524z"/>
<glyph unicode="ó" horiz-adv-x="774" d="M106 252v524q0 113 80 194t195 81q113 0 192.5 -81t79.5 -194v-524q0 -113 -79.5 -194t-192.5 -81q-115 0 -195 81t-80 194zM178 252q0 -84 59.5 -143.5t143.5 -59.5t142.5 59.5t58.5 143.5v524q0 84 -58.5 143.5t-142.5 59.5t-143.5 -59.5t-59.5 -143.5v-524zM317 1274 l248 201l45 -56l-248 -202z"/>
<glyph unicode="ô" d="M109 252v524q0 113 79.5 194t192.5 81q115 0 194.5 -81t79.5 -194v-524q0 -113 -79.5 -194t-194.5 -81q-113 0 -192.5 81t-79.5 194zM164 1231l217 178l219 -178l-43 -47l-176 141l-174 -141zM180 252q0 -84 58.5 -143.5t142.5 -59.5t143.5 59.5t59.5 143.5v524 q0 84 -59.5 143.5t-143.5 59.5t-142.5 -59.5t-58.5 -143.5v-524z"/>
<glyph unicode="õ" horiz-adv-x="774" d="M111 252v524q0 113 79.5 194t192.5 81t193.5 -81t80.5 -194v-524q0 -113 -80.5 -194t-193.5 -81t-192.5 81t-79.5 194zM113 1257q66 88 166 89q68 0 120 -41q37 -27 78 -27q61 0 103 51l63 -35q-66 -88 -166 -88q-68 0 -121 41q-37 27 -77 27q-61 0 -103 -51zM182 252 q0 -84 58.5 -143.5t142.5 -59.5t143.5 59.5t59.5 143.5v524q0 84 -59.5 143.5t-143.5 59.5t-142.5 -59.5t-58.5 -143.5v-524z"/>
<glyph unicode="ö" horiz-adv-x="780" d="M109 252v524q0 113 80.5 194t193.5 81t193.5 -81t80.5 -194v-524q0 -113 -80.5 -194t-193.5 -81t-193.5 81t-80.5 194zM182 252q0 -84 58.5 -143.5t142.5 -59.5t142.5 59.5t58.5 143.5v524q0 84 -58.5 143.5t-142.5 59.5t-142.5 -59.5t-58.5 -143.5v-524zM211 1249.5 q0 22.5 17.5 40t40 17.5t39 -16.5t16.5 -41t-16.5 -41t-39 -16.5t-40 17.5t-17.5 40zM444 1249.5q0 24.5 16.5 41t39 16.5t40 -17.5t17.5 -40t-17.5 -40t-40 -17.5t-39 16.5t-16.5 41z"/>
<glyph unicode="÷" horiz-adv-x="1253" d="M111 0v1190q0 113 80.5 193.5t193.5 80.5q74 0 137 -37l-41 -59q-47 25 -96 25q-84 0 -142.5 -59.5t-58.5 -143.5v-203h387v207q0 113 81 192.5t194 79.5q55 0 102 -20l-33 -64q-35 12 -69 13q-84 0 -143.5 -58.5t-59.5 -142.5v-207h453v-987h-72v915h-381v-915h-72v915 h-387v-915h-73zM997 1298.5q0 22.5 17.5 40t40 17.5t39 -16.5t16.5 -41.5q0 -23 -16.5 -39t-38.5 -16q-25 0 -41.5 16.5t-16.5 39z"/>
<glyph unicode="ø" horiz-adv-x="849" d="M76 -12l88 155q-20 59 -21 109v524q0 113 80 194t193 81q106 0 209 -95l67 121l64 -37l-88 -155q23 -63 22 -109v-524q0 -113 -81 -194t-193 -81q-104 0 -207 95l-70 -121zM215 229l369 658q-70 92 -168 92q-84 0 -142.5 -59.5t-58.5 -143.5v-547zM248 141 q74 -92 168 -92q84 0 143 59.5t59 143.5v543z"/>
<glyph unicode="ù" horiz-adv-x="768" d="M102 250v737h74v-737q0 -84 58.5 -142.5t142.5 -58.5q82 0 141.5 59.5t59.5 141.5v737h71v-737q0 -113 -80 -193t-192.5 -80t-193.5 80t-81 193zM145 1395l48 55l247 -203l-47 -55z"/>
<glyph unicode="ú" d="M106 250v737h74v-737q0 -84 58.5 -142.5t142.5 -58.5q82 0 141.5 59.5t59.5 141.5v737h73v-737q0 -113 -80.5 -193t-193.5 -80t-194 80t-81 193zM317 1247l248 203l45 -55l-248 -203z"/>
<glyph unicode="û" d="M106 250v737h74v-737q0 -84 58.5 -142.5t142.5 -58.5t142.5 58.5t58.5 142.5v737h73v-737q0 -113 -80.5 -193t-193.5 -80t-194 80t-81 193zM162 1231l219 178l217 -178l-43 -47l-174 141l-176 -141z"/>
<glyph unicode="ü" horiz-adv-x="778" d="M109 250v737h71v-737q0 -84 59.5 -142.5t143.5 -58.5t142.5 59.5t58.5 141.5v737h71v-737q0 -113 -79.5 -193t-192.5 -80t-193.5 80t-80.5 193zM209 1247.5q0 22.5 16.5 39t41 16.5t41 -16.5t16.5 -39t-17.5 -40t-40 -17.5t-40 17.5t-17.5 40zM442 1247.5q0 22.5 16.5 39 t41.5 16.5q23 0 39 -16.5t16 -39.5q0 -25 -16.5 -41t-39 -16t-40 17.5t-17.5 40z"/>
<glyph unicode="ý" horiz-adv-x="784" d="M111 252v735h71v-735q0 -84 58.5 -143.5t142.5 -59.5t143.5 59.5t59.5 143.5v735h71v-1061q0 -113 -80.5 -192.5t-193.5 -79.5q-98 0 -174 63l51 52q51 -43 123 -43q84 0 143.5 58t59.5 142v135q-111 -84 -203 -84q-113 0 -192.5 81t-79.5 194zM338 1229l250 201l45 -56 l-248 -200z"/>
<glyph unicode="ÿ" horiz-adv-x="780" d="M109 252v735h73v-735q0 -84 58.5 -143.5t142.5 -59.5t142.5 59.5t58.5 143.5v735h73v-1061q0 -113 -80.5 -192.5t-193.5 -79.5q-96 0 -176 63l53 52q51 -43 123 -43q84 0 142.5 58t58.5 142v135q-111 -84 -201 -84q-113 0 -193.5 81t-80.5 194zM211 1247.5 q0 22.5 16.5 39t40.5 16.5q23 0 39.5 -16.5t16.5 -39.5q0 -25 -16.5 -41t-39 -16t-40 17.5t-17.5 40zM444 1247q0 23 16.5 39.5t39.5 16.5q25 0 41 -16.5t16 -39t-17.5 -40t-40 -17.5t-39 16t-16.5 41z"/>
<glyph unicode="Œ" horiz-adv-x="1548" d="M90 287v848q0 127 91 218t218 91t218.5 -91t91.5 -218v-848q0 -127 -91.5 -218.5t-218.5 -91.5t-218 91.5t-91 218.5zM164 287q0 -98 68.5 -168t167 -70t168 69.5t69.5 168.5v848q0 100 -69.5 168.5t-168 68.5t-167 -68.5t-68.5 -168.5v-848zM903 274v1156h557v-72h-485 v-596h358v-74h-358v-414q0 -84 58.5 -143t142.5 -59h284v-72h-284q-113 0 -193 80.5t-80 193.5z"/>
<glyph unicode="œ" horiz-adv-x="1523" d="M123 252v524q0 113 81 194t193.5 81t193.5 -81t81 -194v-524q0 -113 -81 -194t-193.5 -81t-193.5 81t-81 194zM197 252q0 -84 58 -143.5t142 -59.5t142.5 59.5t58.5 143.5v524q0 84 -58.5 143.5t-142.5 59.5t-142 -59.5t-58 -143.5v-524zM879 252v524q0 113 80.5 194 t193.5 81t192.5 -81t79.5 -194v-346h-475v-178q0 -84 59.5 -143.5t143.5 -59.5q66 0 125 43l51 -51q-80 -63 -176 -64q-113 0 -193.5 81t-80.5 194zM950 504h404v272q0 84 -58.5 143.5t-142.5 59.5t-143.5 -59.5t-59.5 -143.5v-272z"/>
<glyph unicode="Ÿ" horiz-adv-x="856" d="M37 1430h78l305 -850l305 850h78l-346 -963v-467h-74v467zM248 1624.5q0 22.5 17.5 39.5t40 17t38.5 -16t16 -41t-16 -41t-38.5 -16t-40 17.5t-17.5 40zM481 1624.5q0 22.5 17.5 39.5t40 17t39 -16t16.5 -41t-16.5 -41t-39 -16t-40 17.5t-17.5 40z"/>
<glyph unicode="ˆ" horiz-adv-x="917" d="M20 682l371 737h117l371 -737h-84l-344 692l-347 -692h-84z"/>
<glyph unicode="˜" horiz-adv-x="311" d="M-399 162q92 137 247 137q98 0 177 -59q59 -45 129 -45q119 0 184 100l63 -35q-92 -137 -247 -137q-96 0 -174 59q-61 45 -132 45q-117 0 -184 -100z"/>
<glyph unicode="–" horiz-adv-x="1024" d="M160 444v72h690v-72h-690z"/>
<glyph unicode="—" horiz-adv-x="2048" d="M160 444v72h1714v-72h-1714z"/>
<glyph unicode="‘" horiz-adv-x="649" d="M172 1393l45 55l248 -203l-45 -55z"/>
<glyph unicode="’" horiz-adv-x="546" d="M231 1083v347h74v-347h-74z"/>
<glyph unicode="“" horiz-adv-x="661" d="M188 1083v347h74v-347h-74zM408 1083v347h73v-347h-73z"/>
<glyph unicode="”" horiz-adv-x="661" d="M188 1083v347h74v-347h-74zM408 1083v347h73v-347h-73z"/>
<glyph unicode="…" horiz-adv-x="1609" d="M207 55q0 25 16.5 41.5t39 16.5t39.5 -17.5t17 -40t-16 -39t-41 -16.5q-23 0 -39 16t-16 39zM743 55q0 25 16.5 41.5t39 16.5t40 -17.5t17.5 -40t-16.5 -39t-40.5 -16.5q-23 0 -39.5 16t-16.5 39zM1280 55q0 25 16.5 41.5t39 16.5t40 -17.5t17.5 -40t-16.5 -39 t-41.5 -16.5q-23 0 -39 16t-16 39z"/>
<glyph unicode="‹" horiz-adv-x="880" d="M72 635l753 348v-78l-579 -270l579 -270v-80z"/>
<glyph unicode="›" horiz-adv-x="856" d="M27 285v80l579 270l-579 270v78l753 -348z"/>
<glyph unicode="™" horiz-adv-x="1785" d="M66 1358v72h639v-72h-283v-1358h-72v1358h-284zM866 0v1430h86l318 -922l319 922h86v-1430h-71v1249l-324 -925h-20l-322 925v-1249h-72z"/>
<glyph unicode="" horiz-adv-x="985" d="M0 985h985v-985h-985v985z"/>
<glyph unicode="ﬁ" horiz-adv-x="864" d="M102 0v1188q0 113 80 193.5t193 80.5q139 0 221 -112l-64 -37q-57 76 -157 76q-84 0 -142.5 -58.5t-58.5 -142.5v-305h285v-74h-285v-809h-72zM633 1296.5q0 22.5 17.5 40t40 17.5t38.5 -16.5t16 -41t-16 -41t-38.5 -16.5t-40 17.5t-17.5 40zM651 0v987h74v-987h-74z"/>
<glyph unicode="ﬂ" horiz-adv-x="966" d="M102 0v1188q0 113 80 193.5t193 80.5q139 0 221 -112l-64 -37q-57 76 -157 76q-84 0 -142.5 -58.5t-58.5 -142.5v-305h285v-74h-285v-809h-72zM659 252v1210h72v-1210q0 -78 51.5 -134.5t126.5 -66.5v-71q-106 10 -178 88t-72 184z"/>
<glyph unicode="ﬃ" horiz-adv-x="1380" d="M102 0v1188q0 113 80 193.5t193 80.5q139 0 221 -112l-64 -37q-57 76 -157 76q-84 0 -142.5 -58.5t-58.5 -142.5v-305h285v-74h-285v-809h-72zM618 0v1188q0 113 80 193.5t193 80.5q139 0 221 -112l-63 -37q-57 76 -158 76q-84 0 -142.5 -58.5t-58.5 -142.5v-305h285v-74 h-285v-809h-72zM1149 1296.5q0 22.5 17.5 40t40 17.5t39 -16.5t16.5 -41t-16.5 -41t-39 -16.5t-40 17.5t-17.5 40zM1167 0v987h74v-987h-74z"/>
<glyph unicode="ﬄ" horiz-adv-x="1482" d="M102 0v1188q0 113 80 193.5t193 80.5q139 0 221 -112l-64 -37q-57 76 -157 76q-84 0 -142.5 -58.5t-58.5 -142.5v-305h285v-74h-285v-809h-72zM618 0v1188q0 113 80 193.5t193 80.5q139 0 221 -112l-63 -37q-57 76 -158 76q-84 0 -142.5 -58.5t-58.5 -142.5v-305h285v-74 h-285v-809h-72zM1176 252v1210h71v-1210q0 -78 51.5 -134.5t126.5 -66.5v-71q-106 10 -177.5 88t-71.5 184z"/>
</font>
</defs>
</svg>
